#!OML:ASF E:\Steps\Project 1\Capture day 1\Session 2\Subject.ASF
:FULLY-SPECIFIED
:DEGREES
343
root 8.51061 16.162 9.01545 26.0536 8.98126 2.85124
lowerback -23.8007 -0.983053 -6.0958
upperback -2.53355 0.60598 -2.37102
thorax 10.4683 0.0941941 1.04651
lowerneck 0.0421732 -5.60063 -0.862593
upperneck -10.5182 -7.08306 5.35321
head -3.15343 -3.67488 2.07786
rclavicle -2.71341e-014 2.70347e-014
rhumerus -33.228 3.51181 -93.4478
rradius 50.019
rwrist -6.11585
rhand -5.93139 -52.2971
rfingers 7.12502
rthumb 19.8983 -441.298
lclavicle -2.71341e-014 2.70347e-014
lhumerus -39.5435 15.6065 70.7426
lradius 16.9044
lwrist -10.4366
lhand -28.2869 -15.2883
lfingers 7.12502
lthumb -1.66301 14.6849
rfemur -31.7366 2.4057 20.9797
rtibia 29.0435
rfoot -29.0475 -14.6281
rtoes -33.7632
lfemur -37.8144 -14.725 -14.5328
ltibia 31.0548
lfoot -13.6854 -3.73031
ltoes -25.5231
344
root 8.50469 16.1724 9.01401 26.1772 8.80975 2.91969
lowerback -23.867 -1.00613 -6.31585
upperback -2.63428 0.626761 -2.31046
thorax 10.3849 0.0971163 1.24703
lowerneck -0.292304 -5.57939 -0.831028
upperneck -10.4444 -7.08665 4.99228
head -3.07912 -3.66091 1.9375
rclavicle 1.25234e-014 4.77083e-015
rhumerus -33.3127 3.5373 -93.3559
rradius 49.6584
rwrist -5.67198
rhand -5.64763 -52.5584
rfingers 7.12502
rthumb 20.1711 -441.531
lclavicle 1.25234e-014 4.77083e-015
lhumerus -39.6252 17.0617 70.0929
lradius 16.0409
lwrist -11.1741
lhand -28.6226 -15.6991
lfingers 7.12502
lthumb -1.98718 14.2714
rfemur -31.5355 2.30836 20.8714
rtibia 28.3603
rfoot -27.1396 -15.3423
rtoes -40.4362
lfemur -37.3874 -14.5154 -14.6675
ltibia 30.0519
lfoot -13.4613 -3.57652
ltoes -26.331
345
root 8.50279 16.1779 9.01127 26.2737 8.56362 3.02035
lowerback -23.9297 -0.961609 -6.48108
upperback -2.70281 0.729596 -2.3064
thorax 10.3316 0.141095 1.3793
lowerneck -0.426938 -5.54972 -0.82845
upperneck -10.5151 -7.05991 4.80656
head -3.08569 -3.64029 1.87296
rclavicle -5.96354e-015 3.97569e-015
rhumerus -33.2916 3.39752 -93.1897
rradius 49.144
rwrist -5.0722
rhand -5.34075 -52.7114
rfingers 7.12502
rthumb 20.466 -441.653
lclavicle -5.96354e-015 3.97569e-015
lhumerus -39.7059 18.3197 69.504
lradius 15.3579
lwrist -11.8682
lhand -28.7013 -15.7496
lfingers 7.12502
lthumb -2.06328 14.2202
rfemur -31.3073 2.31341 20.692
rtibia 27.6548
rfoot -23.7813 -16.8713
rtoes -49.9587
lfemur -36.8916 -14.4191 -14.8405
ltibia 29.0101
lfoot -13.2734 -3.38822
ltoes -26.3343
346
root 8.50307 16.1812 9.00529 26.3519 8.39624 3.06396
lowerback -23.9264 -0.88223 -6.49962
upperback -2.78637 0.836482 -2.33429
thorax 10.2278 0.195681 1.39386
lowerneck -0.496838 -5.50159 -0.815791
upperneck -10.5146 -7.00434 4.68758
head -3.07884 -3.60815 1.8282
rclavicle -8.05078e-015 2.38542e-015
rhumerus -33.2291 3.23687 -93.0913
rradius 48.4649
rwrist -4.77823
rhand -5.61103 -52.6639
rfingers 7.12502
rthumb 20.2062 -441.633
lclavicle -8.05078e-015 2.38542e-015
lhumerus -39.8799 19.6159 68.7411
lradius 14.8932
lwrist -12.9989
lhand -28.4973 -16.382
lfingers 7.12502
lthumb -1.86621 13.5896
rfemur -31.0742 2.27191 20.6104
rtibia 26.9564
rfoot -27.3261 -14.5868
rtoes -37.7619
lfemur -36.5062 -14.4397 -14.9029
ltibia 28.093
lfoot -13.1052 -3.19519
ltoes -25.4446
347
root 8.50274 16.1824 9.00268 26.4097 8.2487 3.07657
lowerback -24.0201 -0.784357 -6.43957
upperback -2.78526 0.966672 -2.41669
thorax 10.2731 0.259883 1.30968
lowerneck -0.564226 -5.48643 -0.756369
upperneck -10.6062 -6.97752 4.70982
head -3.09992 -3.59769 1.82534
rclavicle -2.67365e-014 5.64548e-014
rhumerus -32.9574 3.07606 -93.0683
rradius 47.6368
rwrist -4.65411
rhand -5.86031 -52.7045
rfingers 7.12502
rthumb 19.9666 -441.699
lclavicle -2.67365e-014 5.64548e-014
lhumerus -39.8441 20.5708 68.1697
lradius 14.5115
lwrist -13.8644
lhand -28.3587 -16.7323
lfingers 7.12502
lthumb -1.73232 13.2404
rfemur -30.8115 2.41245 20.5347
rtibia 26.3085
rfoot -22.9027 -16.7242
rtoes -50.8568
lfemur -36.0869 -14.5571 -14.8967
ltibia 27.1873
lfoot -13.0693 -2.94194
ltoes -24.6326
348
root 8.50059 16.183 9.00043 26.4829 8.01272 3.12099
lowerback -24.2147 -0.649714 -6.41681
upperback -2.71367 1.17348 -2.54704
thorax 10.4485 0.354616 1.21786
lowerneck -0.585869 -5.52451 -0.673466
upperneck -10.8319 -7.006 4.86965
head -3.17015 -3.62198 1.87102
rclavicle -7.25564e-015 3.18055e-015
rhumerus -32.5559 2.66419 -92.9807
rradius 46.7915
rwrist -4.34129
rhand -5.85654 -52.6729
rfingers 7.12502
rthumb 19.9703 -441.667
lclavicle -7.25564e-015 3.18055e-015
lhumerus -39.5713 21.0699 67.9506
lradius 14.2245
lwrist -14.2402
lhand -28.3188 -15.8018
lfingers 7.12502
lthumb -1.69385 14.1712
rfemur -30.6173 2.82619 20.3693
rtibia 25.7179
rfoot -26.2143 -14.9087
rtoes -40.4367
lfemur -35.7681 -14.5202 -14.9795
ltibia 26.5024
lfoot -13.0881 -2.6996
ltoes -25.6733
349
root 8.49639 16.1813 8.99493 26.5765 7.73599 3.15325
lowerback -24.3598 -0.542953 -6.46234
upperback -2.70069 1.3477 -2.62151
thorax 10.5308 0.433414 1.21764
lowerneck -0.421029 -5.54865 -0.622932
upperneck -10.9606 -7.0092 5.13478
head -3.23796 -3.63769 1.96077
rclavicle 1.54058e-014 0
rhumerus -32.2487 2.09434 -92.8126
rradius 45.9565
rwrist -3.86971
rhand -6.05544 -52.5699
rfingers 7.12502
rthumb 19.7791 -441.584
lclavicle 1.54058e-014 0
lhumerus -39.3591 21.3212 67.9316
lradius 14.026
lwrist -14.4384
lhand -28.2846 -14.9991
lfingers 7.12502
lthumb -1.66078 14.9742
rfemur -30.5719 3.24403 20.2353
rtibia 25.2847
rfoot -27.1262 -14.5798
rtoes -36.7918
lfemur -35.6108 -14.2719 -15.0983
ltibia 26.0425
lfoot -13.0501 -2.57481
ltoes -26.8034
350
root 8.49207 16.1768 8.98954 26.6543 7.55274 3.19882
lowerback -24.4304 -0.515755 -6.54889
upperback -2.72274 1.41439 -2.64703
thorax 10.5378 0.461697 1.2606
lowerneck -0.838427 -5.5629 -0.549503
upperneck -11.0569 -7.05907 4.74572
head -3.2079 -3.64796 1.80819
rclavicle 1.39149e-015 2.54444e-014
rhumerus -31.9907 1.49027 -92.5945
rradius 45.0624
rwrist -3.35476
rhand -6.27646 -52.3792
rfingers 7.12502
rthumb 19.5666 -441.415
lclavicle 1.39149e-015 2.54444e-014
lhumerus -39.1838 21.2251 68.1723
lradius 13.9065
lwrist -14.2045
lhand -28.2479 -14.9128
lfingers 7.12502
lthumb -1.62533 15.0608
rfemur -30.5811 3.42434 20.1825
rtibia 25.0471
rfoot -26.9136 -14.9326
rtoes -37.698
lfemur -35.4085 -14.3389 -15.1041
ltibia 25.4916
lfoot -12.976 -2.53965
ltoes -24.6242
351
root 8.48917 16.1729 8.98443 26.6832 7.36483 3.32044
lowerback -24.4415 -0.514164 -6.68366
upperback -2.71654 1.45957 -2.69658
thorax 10.546 0.477888 1.29648
lowerneck -0.536545 -5.6355 -0.560756
upperneck -11.2019 -7.11361 5.1755
head -3.29739 -3.69442 1.96959
rclavicle -5.96354e-016 3.89618e-014
rhumerus -31.6978 0.927535 -92.3717
rradius 44.0679
rwrist -2.97275
rhand -6.41888 -52.109
rfingers 7.12502
rthumb 19.4296 -441.158
lclavicle -5.96354e-016 3.89618e-014
lhumerus -38.9662 21.1769 68.4118
lradius 13.7514
lwrist -13.9645
lhand -28.359 -15.1035
lfingers 7.12502
lthumb -1.73268 14.8692
rfemur -30.5404 3.64736 20.0037
rtibia 24.8767
rfoot -26.6639 -15.2187
rtoes -38.0579
lfemur -35.1257 -14.6703 -15.1256
ltibia 24.8989
lfoot -12.8782 -2.34585
ltoes -22.431
352
root 8.48874 16.1705 8.9765 26.7174 7.05815 3.47386
lowerback -24.4353 -0.488851 -6.82885
upperback -2.72868 1.53809 -2.76764
thorax 10.522 0.511016 1.32501
lowerneck -0.687819 -5.60104 -0.554762
upperneck -11.5836 -7.08032 4.90639
head -3.41248 -3.6696 1.88756
rclavicle 3.13086e-014 -1.19271e-014
rhumerus -31.4491 0.282021 -92.1412
rradius 43.0648
rwrist -2.55855
rhand -6.41716 -52.1632
rfingers 7.12502
rthumb 19.4313 -441.212
lclavicle 3.13086e-014 -1.19271e-014
lhumerus -38.7175 20.9281 68.8153
lradius 13.6895
lwrist -13.6575
lhand -28.5744 -14.7572
lfingers 7.12502
lthumb -1.94067 15.2137
rfemur -30.4706 4.09451 19.6526
rtibia 24.586
rfoot -26.423 -15.4245
rtoes -38.0494
lfemur -34.927 -14.7873 -15.3019
ltibia 24.4675
lfoot -12.7706 -1.87415
ltoes -24.3507
353
root 8.49699 16.1808 8.97529 26.3585 7.20807 3.67986
lowerback -24.0218 -0.600364 -6.8787
upperback -2.64437 1.37017 -2.76362
thorax 10.4066 0.432118 1.30018
lowerneck -0.871905 -5.53521 -0.587101
upperneck -11.6336 -7.01627 4.64192
head -3.40537 -3.62524 1.79926
rclavicle -2.80286e-014 2.38542e-015
rhumerus -31.2726 -0.371881 -91.8451
rradius 42.0622
rwrist -2.22997
rhand -6.68275 -52.4937
rfingers 7.12502
rthumb 19.1759 -441.568
lclavicle -2.80286e-014 2.38542e-015
lhumerus -38.603 20.3306 69.5214
lradius 13.9325
lwrist -12.9269
lhand -28.5692 -14.1959
lfingers 7.12502
lthumb -1.9356 15.775
rfemur -29.6752 4.16379 19.3982
rtibia 23.9213
rfoot -26.1817 -15.6718
rtoes -37.9702
lfemur -34.3778 -15.0887 -15.6306
ltibia 24.1897
lfoot -12.6396 -1.724
ltoes -26.5887
